  0
SECTION
  2
HEADER
  9
$ACADVER
  1
AC1024
  9
$ACADMAINTVER
 70
     6
  9
$DWGCODEPAGE
  3
ANSI_1252
  9
$INSBASE
 10
0.0
 20
0.0
 30
0.0
  9
$EXTMIN
 10
1.000000000000000E+20
 20
1.000000000000000E+20
 30
1.000000000000000E+20
  9
$EXTMAX
 10
-1.000000000000000E+20
 20
-1.000000000000000E+20
 30
-1.000000000000000E+20
  9
$LIMMIN
 10
0.0
 20
0.0
  9
$LIMMAX
 10
12.0
 20
9.0
  9
$ORTHOMODE
 70
     0
  9
$REGENMODE
 70
     1
  9
$FILLMODE
 70
     1
  9
$QTEXTMODE
 70
     0
  9
$MIRRTEXT
 70
     1
  9
$LTSCALE
 40
1.0
  9
$ATTMODE
 70
     1
  9
$TEXTSIZE
 40
0.2
  9
$TRACEWID
 40
0.05
  9
$TEXTSTYLE
  7
Standard
  9
$CLAYER
  8
0
  9
$CELTYPE
  6
ByLayer
  9
$CECOLOR
 62
   256
  9
$CELTSCALE
 40
1.0
  9
$DISPSILH
 70
     0
  9
$DIMSCALE
 40
1.0
  9
$DIMASZ
 40
0.18
  9
$DIMEXO
 40
0.0625
  9
$DIMDLI
 40
0.38
  9
$DIMRND
 40
0.0
  9
$DIMDLE
 40
0.0
  9
$DIMEXE
 40
0.18
  9
$DIMTP
 40
0.0
  9
$DIMTM
 40
0.0
  9
$DIMTXT
 40
0.18
  9
$DIMCEN
 40
0.09
  9
$DIMTSZ
 40
0.0
  9
$DIMTOL
 70
     0
  9
$DIMLIM
 70
     0
  9
$DIMTIH
 70
     1
  9
$DIMTOH
 70
     1
  9
$DIMSE1
 70
     0
  9
$DIMSE2
 70
     0
  9
$DIMTAD
 70
     0
  9
$DIMZIN
 70
     0
  9
$DIMBLK
  1

  9
$DIMASO
 70
     1
  9
$DIMSHO
 70
     1
  9
$DIMPOST
  1

  9
$DIMAPOST
  1

  9
$DIMALT
 70
     0
  9
$DIMALTD
 70
     2
  9
$DIMALTF
 40
25.4
  9
$DIMLFAC
 40
1.0
  9
$DIMTOFL
 70
     0
  9
$DIMTVP
 40
0.0
  9
$DIMTIX
 70
     0
  9
$DIMSOXD
 70
     0
  9
$DIMSAH
 70
     0
  9
$DIMBLK1
  1

  9
$DIMBLK2
  1

  9
$DIMSTYLE
  2
Standard
  9
$DIMCLRD
 70
     0
  9
$DIMCLRE
 70
     0
  9
$DIMCLRT
 70
     0
  9
$DIMTFAC
 40
1.0
  9
$DIMGAP
 40
0.09
  9
$DIMJUST
 70
     0
  9
$DIMSD1
 70
     0
  9
$DIMSD2
 70
     0
  9
$DIMTOLJ
 70
     1
  9
$DIMTZIN
 70
     0
  9
$DIMALTZ
 70
     0
  9
$DIMALTTZ
 70
     0
  9
$DIMUPT
 70
     0
  9
$DIMDEC
 70
     4
  9
$DIMTDEC
 70
     4
  9
$DIMALTU
 70
     2
  9
$DIMALTTD
 70
     2
  9
$DIMTXSTY
  7
Standard
  9
$DIMAUNIT
 70
     0
  9
$DIMADEC
 70
     0
  9
$DIMALTRND
 40
0.0
  9
$DIMAZIN
 70
     0
  9
$DIMDSEP
 70
    46
  9
$DIMATFIT
 70
     3
  9
$DIMFRAC
 70
     0
  9
$DIMLDRBLK
  1

  9
$DIMLUNIT
 70
     2
  9
$DIMLWD
 70
    -2
  9
$DIMLWE
 70
    -2
  9
$DIMTMOVE
 70
     0
  9
$DIMFXL
 40
1.0
  9
$DIMFXLON
 70
     0
  9
$DIMJOGANG
 40
0.7853981633974483
  9
$DIMTFILL
 70
     0
  9
$DIMTFILLCLR
 70
     0
  9
$DIMARCSYM
 70
     0
  9
$DIMLTYPE
  6

  9
$DIMLTEX1
  6

  9
$DIMLTEX2
  6

  9
$DIMTXTDIRECTION
 70
     0
  9
$LUNITS
 70
     2
  9
$LUPREC
 70
     4
  9
$SKETCHINC
 40
0.1
  9
$FILLETRAD
 40
0.5
  9
$AUNITS
 70
     0
  9
$AUPREC
 70
     0
  9
$MENU
  1
.
  9
$ELEVATION
 40
0.0
  9
$PELEVATION
 40
0.0
  9
$THICKNESS
 40
0.0
  9
$LIMCHECK
 70
     0
  9
$CHAMFERA
 40
0.5
  9
$CHAMFERB
 40
0.5
  9
$CHAMFERC
 40
1.0
  9
$CHAMFERD
 40
0.0
  9
$SKPOLY
 70
     0
  9
$TDCREATE
 40
2459077.470061019
  9
$TDUCREATE
 40
2459077.761727685
  9
$TDUPDATE
 40
2459077.470061042
  9
$TDUUPDATE
 40
2459077.761727708
  9
$TDINDWG
 40
0.0000000116
  9
$TDUSRTIMER
 40
0.0000000116
  9
$USRTIMER
 70
     1
  9
$ANGBASE
 50
0.0
  9
$ANGDIR
 70
     0
  9
$PDMODE
 70
     0
  9
$PDSIZE
 40
0.0
  9
$PLINEWID
 40
0.0
  9
$SPLFRAME
 70
     0
  9
$SPLINETYPE
 70
     6
  9
$SPLINESEGS
 70
     8
  9
$HANDSEED
  5
7A
  9
$SURFTAB1
 70
     6
  9
$SURFTAB2
 70
     6
  9
$SURFTYPE
 70
     6
  9
$SURFU
 70
     6
  9
$SURFV
 70
     6
  9
$UCSBASE
  2

  9
$UCSNAME
  2

  9
$UCSORG
 10
0.0
 20
0.0
 30
0.0
  9
$UCSXDIR
 10
1.0
 20
0.0
 30
0.0
  9
$UCSYDIR
 10
0.0
 20
1.0
 30
0.0
  9
$UCSORTHOREF
  2

  9
$UCSORTHOVIEW
 70
     0
  9
$UCSORGTOP
 10
0.0
 20
0.0
 30
0.0
  9
$UCSORGBOTTOM
 10
0.0
 20
0.0
 30
0.0
  9
$UCSORGLEFT
 10
0.0
 20
0.0
 30
0.0
  9
$UCSORGRIGHT
 10
0.0
 20
0.0
 30
0.0
  9
$UCSORGFRONT
 10
0.0
 20
0.0
 30
0.0
  9
$UCSORGBACK
 10
0.0
 20
0.0
 30
0.0
  9
$PUCSBASE
  2

  9
$PUCSNAME
  2

  9
$PUCSORG
 10
0.0
 20
0.0
 30
0.0
  9
$PUCSXDIR
 10
1.0
 20
0.0
 30
0.0
  9
$PUCSYDIR
 10
0.0
 20
1.0
 30
0.0
  9
$PUCSORTHOREF
  2

  9
$PUCSORTHOVIEW
 70
     0
  9
$PUCSORGTOP
 10
0.0
 20
0.0
 30
0.0
  9
$PUCSORGBOTTOM
 10
0.0
 20
0.0
 30
0.0
  9
$PUCSORGLEFT
 10
0.0
 20
0.0
 30
0.0
  9
$PUCSORGRIGHT
 10
0.0
 20
0.0
 30
0.0
  9
$PUCSORGFRONT
 10
0.0
 20
0.0
 30
0.0
  9
$PUCSORGBACK
 10
0.0
 20
0.0
 30
0.0
  9
$USERI1
 70
     0
  9
$USERI2
 70
     0
  9
$USERI3
 70
     0
  9
$USERI4
 70
     0
  9
$USERI5
 70
     0
  9
$USERR1
 40
0.0
  9
$USERR2
 40
0.0
  9
$USERR3
 40
0.0
  9
$USERR4
 40
0.0
  9
$USERR5
 40
0.0
  9
$WORLDVIEW
 70
     1
  9
$SHADEDGE
 70
     3
  9
$SHADEDIF
 70
    70
  9
$TILEMODE
 70
     1
  9
$MAXACTVP
 70
    64
  9
$PINSBASE
 10
0.0
 20
0.0
 30
0.0
  9
$PLIMCHECK
 70
     0
  9
$PEXTMIN
 10
1.000000000000000E+20
 20
1.000000000000000E+20
 30
1.000000000000000E+20
  9
$PEXTMAX
 10
-1.000000000000000E+20
 20
-1.000000000000000E+20
 30
-1.000000000000000E+20
  9
$PLIMMIN
 10
0.0
 20
0.0
  9
$PLIMMAX
 10
12.0
 20
9.0
  9
$UNITMODE
 70
     0
  9
$VISRETAIN
 70
     1
  9
$PLINEGEN
 70
     0
  9
$PSLTSCALE
 70
     1
  9
$TREEDEPTH
 70
  3020
  9
$CMLSTYLE
  2
Standard
  9
$CMLJUST
 70
     0
  9
$CMLSCALE
 40
1.0
  9
$PROXYGRAPHICS
 70
     1
  9
$MEASUREMENT
 70
     0
  9
$CELWEIGHT
370
    -1
  9
$ENDCAPS
280
     0
  9
$JOINSTYLE
280
     0
  9
$LWDISPLAY
290
     1
  9
$INSUNITS
 70
     1
  9
$HYPERLINKBASE
  1

  9
$STYLESHEET
  1

  9
$XEDIT
290
     1
  9
$CEPSNTYPE
380
     0
  9
$PSTYLEMODE
290
     1
  9
$FINGERPRINTGUID
  2
{AD4ACF7F-D0FF-4D4F-A0C7-F18F7B058CA1}
  9
$VERSIONGUID
  2
{FAEB1C32-E019-11D5-929B-00C0DF256EC4}
  9
$EXTNAMES
290
     1
  9
$PSVPSCALE
 40
0.0
  9
$OLESTARTUP
290
     0
  9
$SORTENTS
280
   127
  9
$INDEXCTL
280
     0
  9
$HIDETEXT
280
     1
  9
$XCLIPFRAME
280
     2
  9
$HALOGAP
280
     0
  9
$OBSCOLOR
 70
   257
  9
$OBSLTYPE
280
     0
  9
$INTERSECTIONDISPLAY
280
     0
  9
$INTERSECTIONCOLOR
 70
   257
  9
$DIMASSOC
280
     2
  9
$PROJECTNAME
  1

  9
$CAMERADISPLAY
290
     0
  9
$LENSLENGTH
 40
50.0
  9
$CAMERAHEIGHT
 40
0.0
  9
$STEPSPERSEC
 40
2.0
  9
$STEPSIZE
 40
6.0
  9
$3DDWFPREC
 40
2.0
  9
$PSOLWIDTH
 40
0.25
  9
$PSOLHEIGHT
 40
4.0
  9
$LOFTANG1
 40
1.570796326794897
  9
$LOFTANG2
 40
1.570796326794897
  9
$LOFTMAG1
 40
0.0
  9
$LOFTMAG2
 40
0.0
  9
$LOFTPARAM
 70
     7
  9
$LOFTNORMALS
280
     1
  9
$LATITUDE
 40
37.795
  9
$LONGITUDE
 40
-122.394
  9
$NORTHDIRECTION
 40
0.0
  9
$TIMEZONE
 70
 -8000
  9
$LIGHTGLYPHDISPLAY
280
     1
  9
$TILEMODELIGHTSYNCH
280
     1
  9
$CMATERIAL
347
3C
  9
$SOLIDHIST
280
     1
  9
$SHOWHIST
280
     1
  9
$DWFFRAME
280
     2
  9
$DGNFRAME
280
     2
  9
$REALWORLDSCALE
290
     1
  9
$INTERFERECOLOR
 62
   256
  9
$CSHADOW
280
     0
  9
$SHADOWPLANELOCATION
 40
0.0
  0
ENDSEC
  0
SECTION
  2
CLASSES
  0
CLASS
  1
ACDBDICTIONARYWDFLT
  2
AcDbDictionaryWithDefault
  3
ObjectDBX Classes
 90
        0
 91
        4
280
     0
281
     0
  0
CLASS
  1
VISUALSTYLE
  2
AcDbVisualStyle
  3
ObjectDBX Classes
 90
     4095
 91
        4
280
     0
281
     0
  0
CLASS
  1
MATERIAL
  2
AcDbMaterial
  3
ObjectDBX Classes
 90
     1153
 91
        4
280
     0
281
     0
  0
CLASS
  1
SUN
  2
AcDbSun
  3
SCENEOE
 90
     1024
 91
        4
280
     0
281
     0
  0
ENDSEC
  0
SECTION
  2
TABLES
  0
TABLE
  2
VPORT
  5
8
330
0
100
AcDbSymbolTable
 70
     1
  0
VPORT
  5
29
330
8
100
AcDbSymbolTableRecord
100
AcDbViewportTableRecord
  2
*Active
 70
     0
 10
0.0
 20
0.0
 11
1.0
 21
1.0
 12
0.0
 22
0.0
 13
0.0
 23
0.0
 14
0.5
 24
0.5
 15
0.5
 25
0.5
 16
0.0
 26
0.0
 36
1.0
 17
3.5
 27
-4.5
 37
0.0
 40
9.0
 41
0.7777777777777778
 42
50.0
 43
0.0
 44
0.0
 50
0.0
 51
0.0
 71
     0
 72
   100
 73
     1
 74
     3
 75
     0
 76
     0
 77
     0
 78
     0
281
     0
 65
     1
110
0.0
120
0.0
130
0.0
111
1.0
121
0.0
131
0.0
112
0.0
122
1.0
132
0.0
 79
     0
146
0.0
 60
     3
 61
     5
292
     1
282
     1
141
0.0
142
0.0
 63
   250
361
3F
  0
ENDTAB
  0
TABLE
  2
LTYPE
  5
5
330
0
100
AcDbSymbolTable
 70
     1
  0
LTYPE
  5
14
330
5
100
AcDbSymbolTableRecord
100
AcDbLinetypeTableRecord
  2
ByBlock
 70
     0
  3

 72
    65
 73
     0
 40
0.0
  0
LTYPE
  5
15
330
5
100
AcDbSymbolTableRecord
100
AcDbLinetypeTableRecord
  2
ByLayer
 70
     0
  3

 72
    65
 73
     0
 40
0.0
  0
LTYPE
  5
16
330
5
100
AcDbSymbolTableRecord
100
AcDbLinetypeTableRecord
  2
Continuous
 70
     0
  3
Solid line
 72
    65
 73
     0
 40
0.0
  0
ENDTAB
  0
TABLE
  2
LAYER
  5
2
330
0
100
AcDbSymbolTable
 70
     2
  0
LAYER
  5
10
330
2
100
AcDbSymbolTableRecord
100
AcDbLayerTableRecord
  2
0
 70
     0
 62
     7
  6
Continuous
370
    -3
390
F
347
3E
  0
LAYER
  5
40
330
2
100
AcDbSymbolTableRecord
100
AcDbLayerTableRecord
  2
Layer 1
 70
     0
 62
     7
  6
Continuous
370
    -3
390
F
347
3E
  0
ENDTAB
  0
TABLE
  2
STYLE
  5
3
330
0
100
AcDbSymbolTable
 70
     1
  0
STYLE
  5
11
330
3
100
AcDbSymbolTableRecord
100
AcDbTextStyleTableRecord
  2
Standard
 70
     0
 40
0.0
 41
1.0
 50
0.0
 71
     0
 42
0.2
  3
txt
  4

  0
ENDTAB
  0
TABLE
  2
VIEW
  5
6
330
0
100
AcDbSymbolTable
 70
     0
  0
ENDTAB
  0
TABLE
  2
UCS
  5
7
330
0
100
AcDbSymbolTable
 70
     0
  0
ENDTAB
  0
TABLE
  2
APPID
  5
9
330
0
100
AcDbSymbolTable
 70
     1
  0
APPID
  5
12
330
9
100
AcDbSymbolTableRecord
100
AcDbRegAppTableRecord
  2
ACAD
 70
     0
  0
ENDTAB
  0
TABLE
  2
DIMSTYLE
  5
A
330
0
100
AcDbSymbolTable
 70
     1
100
AcDbDimStyleTable
  0
DIMSTYLE
105
27
330
A
100
AcDbSymbolTableRecord
100
AcDbDimStyleTableRecord
  2
Standard
 70
     0
178
     0
340
11
  0
ENDTAB
  0
TABLE
  2
BLOCK_RECORD
  5
1
330
0
100
AcDbSymbolTable
 70
     2
  0
BLOCK_RECORD
  5
1F
330
1
100
AcDbSymbolTableRecord
100
AcDbBlockTableRecord
  2
*Model_Space
340
22
 70
     0
280
     1
281
     0
  0
BLOCK_RECORD
  5
1B
330
1
100
AcDbSymbolTableRecord
100
AcDbBlockTableRecord
  2
*Paper_Space
340
1E
 70
     0
280
     1
281
     0
  0
BLOCK_RECORD
  5
23
330
1
100
AcDbSymbolTableRecord
100
AcDbBlockTableRecord
  2
*Paper_Space0
340
26
 70
     0
280
     1
281
     0
  0
BLOCK_RECORD
  5
50
330
1
100
AcDbSymbolTableRecord
100
AcDbBlockTableRecord
  2
block 2
340
0
102
{BLKREFS
331
51
102
}
 70
     0
280
     1
281
     0
  0
ENDTAB
  0
ENDSEC
  0
SECTION
  2
BLOCKS
  0
BLOCK
  5
20
330
1F
100
AcDbEntity
  8
0
100
AcDbBlockBegin
  2
*Model_Space
 70
     0
 10
0.0
 20
0.0
 30
0.0
  3
*Model_Space
  1

  0
ENDBLK
  5
21
330
1F
100
AcDbEntity
  8
0
100
AcDbBlockEnd
  0
BLOCK
  5
1C
330
1B
100
AcDbEntity
 67
     1
  8
0
100
AcDbBlockBegin
  2
*Paper_Space
 70
     0
 10
0.0
 20
0.0
 30
0.0
  3
*Paper_Space
  1

  0
ENDBLK
  5
1D
330
1B
100
AcDbEntity
 67
     1
  8
0
100
AcDbBlockEnd
  0
BLOCK
  5
24
330
23
100
AcDbEntity
  8
0
100
AcDbBlockBegin
  2
*Paper_Space0
 70
     0
 10
0.0
 20
0.0
 30
0.0
  3
*Paper_Space0
  1

  0
ENDBLK
  5
25
330
23
100
AcDbEntity
  8
0
100
AcDbBlockEnd
  0
BLOCK
  5
52
330
50
100
AcDbEntity
  8
0
100
AcDbBlockBegin
  2
block 2
 70
     0
 10
0.0
 20
0.0
 30
0.0
  3
block 2
  1

  0
POLYLINE
  5
54
330
50
100
AcDbEntity
  8
Layer 1
 62
     7
420
 16777215
370
     9
100
AcDb2dPolyline
 66
     1
 10
0.0
 20
0.0
 30
0.0
  0
VERTEX
  5
55
330
54
100
AcDbEntity
  8
Layer 1
 62
     7
420
 16777215
370
     9
100
AcDbVertex
100
AcDb2dVertex
 10
2.035341400226824
 20
-1.020188423081903
 30
0.0
  0
VERTEX
  5
56
330
54
100
AcDbEntity
  8
Layer 1
 62
     7
420
 16777215
370
     9
100
AcDbVertex
100
AcDb2dVertex
 10
2.035341400226824
 20
-1.520188423081903
 30
0.0
  0
SEQEND
  5
57
330
54
100
AcDbEntity
  8
Layer 1
 62
     7
420
 16777215
370
     9
  0
POLYLINE
  5
58
330
50
100
AcDbEntity
  8
Layer 1
 62
     7
420
 16777215
370
     9
100
AcDb2dPolyline
 66
     1
 10
0.0
 20
0.0
 30
0.0
  0
VERTEX
  5
59
330
58
100
AcDbEntity
  8
Layer 1
 62
     7
420
 16777215
370
     9
100
AcDbVertex
100
AcDb2dVertex
 10
1.285341400226823
 20
-1.770188423081903
 30
0.0
  0
VERTEX
  5
5A
330
58
100
AcDbEntity
  8
Layer 1
 62
     7
420
 16777215
370
     9
100
AcDbVertex
100
AcDb2dVertex
 10
1.785341400226823
 20
-1.770188423081903
 30
0.0
  0
SEQEND
  5
5B
330
58
100
AcDbEntity
  8
Layer 1
 62
     7
420
 16777215
370
     9
  0
POLYLINE
  5
5C
330
50
100
AcDbEntity
  8
Layer 1
 62
     7
420
 16777215
370
     9
100
AcDb2dPolyline
 66
     1
 10
0.0
 20
0.0
 30
0.0
  0
VERTEX
  5
5D
330
5C
100
AcDbEntity
  8
Layer 1
 62
     7
420
 16777215
370
     9
100
AcDbVertex
100
AcDb2dVertex
 10
1.285341400226823
 20
-7.217148178232365
 30
0.0
  0
VERTEX
  5
5E
330
5C
100
AcDbEntity
  8
Layer 1
 62
     7
420
 16777215
370
     9
100
AcDbVertex
100
AcDb2dVertex
 10
1.785341400226823
 20
-7.217148178232365
 30
0.0
  0
SEQEND
  5
5F
330
5C
100
AcDbEntity
  8
Layer 1
 62
     7
420
 16777215
370
     9
  0
POLYLINE
  5
60
330
50
100
AcDbEntity
  8
Layer 1
 62
     7
420
 16777215
370
     9
100
AcDb2dPolyline
 66
     1
 10
0.0
 20
0.0
 30
0.0
  0
VERTEX
  5
61
330
60
100
AcDbEntity
  8
Layer 1
 62
     7
420
 16777215
370
     9
100
AcDbVertex
100
AcDb2dVertex
 10
2.035341400226824
 20
-7.967148178232365
 30
0.0
  0
VERTEX
  5
62
330
60
100
AcDbEntity
  8
Layer 1
 62
     7
420
 16777215
370
     9
100
AcDbVertex
100
AcDb2dVertex
 10
2.035341400226824
 20
-7.467148178232365
 30
0.0
  0
SEQEND
  5
63
330
60
100
AcDbEntity
  8
Layer 1
 62
     7
420
 16777215
370
     9
  0
POLYLINE
  5
64
330
50
100
AcDbEntity
  8
Layer 1
 62
     7
420
 16777215
370
     9
100
AcDb2dPolyline
 66
     1
 10
0.0
 20
0.0
 30
0.0
  0
VERTEX
  5
65
330
64
100
AcDbEntity
  8
Layer 1
 62
     7
420
 16777215
370
     9
100
AcDbVertex
100
AcDb2dVertex
 10
4.962616116120317
 20
-1.020188423081903
 30
0.0
  0
VERTEX
  5
66
330
64
100
AcDbEntity
  8
Layer 1
 62
     7
420
 16777215
370
     9
100
AcDbVertex
100
AcDb2dVertex
 10
4.962616116120317
 20
-1.520188423081903
 30
0.0
  0
SEQEND
  5
67
330
64
100
AcDbEntity
  8
Layer 1
 62
     7
420
 16777215
370
     9
  0
POLYLINE
  5
68
330
50
100
AcDbEntity
  8
Layer 1
 62
     7
420
 16777215
370
     9
100
AcDb2dPolyline
 66
     1
 10
0.0
 20
0.0
 30
0.0
  0
VERTEX
  5
69
330
68
100
AcDbEntity
  8
Layer 1
 62
     7
420
 16777215
370
     9
100
AcDbVertex
100
AcDb2dVertex
 10
5.712616116120317
 20
-1.770188423081903
 30
0.0
  0
VERTEX
  5
6A
330
68
100
AcDbEntity
  8
Layer 1
 62
     7
420
 16777215
370
     9
100
AcDbVertex
100
AcDb2dVertex
 10
5.212616116120317
 20
-1.770188423081903
 30
0.0
  0
SEQEND
  5
6B
330
68
100
AcDbEntity
  8
Layer 1
 62
     7
420
 16777215
370
     9
  0
POLYLINE
  5
6C
330
50
100
AcDbEntity
  8
Layer 1
 62
     7
420
 16777215
370
     9
100
AcDb2dPolyline
 66
     1
 10
0.0
 20
0.0
 30
0.0
  0
VERTEX
  5
6D
330
6C
100
AcDbEntity
  8
Layer 1
 62
     7
420
 16777215
370
     9
100
AcDbVertex
100
AcDb2dVertex
 10
5.712616116120317
 20
-7.217148178232365
 30
0.0
  0
VERTEX
  5
6E
330
6C
100
AcDbEntity
  8
Layer 1
 62
     7
420
 16777215
370
     9
100
AcDbVertex
100
AcDb2dVertex
 10
5.212616116120317
 20
-7.217148178232365
 30
0.0
  0
SEQEND
  5
6F
330
6C
100
AcDbEntity
  8
Layer 1
 62
     7
420
 16777215
370
     9
  0
POLYLINE
  5
70
330
50
100
AcDbEntity
  8
Layer 1
 62
     7
420
 16777215
370
     9
100
AcDb2dPolyline
 66
     1
 10
0.0
 20
0.0
 30
0.0
  0
VERTEX
  5
71
330
70
100
AcDbEntity
  8
Layer 1
 62
     7
420
 16777215
370
     9
100
AcDbVertex
100
AcDb2dVertex
 10
4.962616116120317
 20
-7.967148178232365
 30
0.0
  0
VERTEX
  5
72
330
70
100
AcDbEntity
  8
Layer 1
 62
     7
420
 16777215
370
     9
100
AcDbVertex
100
AcDb2dVertex
 10
4.962616116120317
 20
-7.467148178232365
 30
0.0
  0
SEQEND
  5
73
330
70
100
AcDbEntity
  8
Layer 1
 62
     7
420
 16777215
370
     9
  0
ENDBLK
  5
53
330
50
100
AcDbEntity
  8
0
100
AcDbBlockEnd
  0
ENDSEC
  0
SECTION
  2
ENTITIES
  0
SPLINE
  5
41
330
1F
100
AcDbEntity
  8
Layer 1
 62
   250
420
  2236191
370
    35
100
AcDbSpline
210
0.0
220
0.0
230
1.0
 70
    11
 71
     3
 72
    17
 73
    13
 74
     0
 42
0.0000000001
 43
0.0000000001
 12
1.0
 22
0.0
 32
0.0
 13
1.0
 23
0.0
 33
0.0
 40
0.0
 40
0.0
 40
0.0
 40
0.0
 40
1.0
 40
1.0
 40
1.0
 40
2.0
 40
2.0
 40
2.0
 40
3.0
 40
3.0
 40
3.0
 40
4.0
 40
4.0
 40
4.0
 40
4.0
 10
4.481970884276203
 20
-1.777132867626897
 30
0.0
 10
4.481970884274207
 20
-1.821315647610782
 30
0.0
 10
4.517788104288633
 20
-1.857132867628517
 30
0.0
 10
4.561970884272593
 20
-1.8571328676305
 30
0.0
 10
4.606153664256604
 20
-1.857132867632483
 30
0.0
 10
4.641970884274214
 20
-1.821315647617969
 30
0.0
 10
4.641970884276209
 20
-1.777132867634085
 30
0.0
 10
4.64197088427818
 20
-1.732950087650074
 30
0.0
 10
4.606153664263805
 20
-1.697132867632478
 30
0.0
 10
4.561970884279794
 20
-1.697132867630494
 30
0.0
 10
4.517788104295808
 20
-1.697132867628511
 30
0.0
 10
4.481970884278174
 20
-1.732950087642886
 30
0.0
 10
4.481970884276203
 20
-1.777132867626897
 30
0.0
  0
SPLINE
  5
42
330
1F
100
AcDbEntity
  8
Layer 1
 62
   250
420
  2236191
370
    35
100
AcDbSpline
210
0.0
220
0.0
230
1.0
 70
    11
 71
     3
 72
    17
 73
    13
 74
     0
 42
0.0000000001
 43
0.0000000001
 12
1.0
 22
0.0
 32
0.0
 13
1.0
 23
0.0
 33
0.0
 40
0.0
 40
0.0
 40
0.0
 40
0.0
 40
1.0
 40
1.0
 40
1.0
 40
2.0
 40
2.0
 40
2.0
 40
3.0
 40
3.0
 40
3.0
 40
4.0
 40
4.0
 40
4.0
 40
4.0
 10
1.962285844906015
 20
-1.777132867513779
 30
0.0
 10
1.962285844904045
 20
-1.821315647497664
 30
0.0
 10
1.998103064918546
 20
-1.857132867515386
 30
0.0
 10
2.042285844902507
 20
-1.857132867517369
 30
0.0
 10
2.086468624886518
 20
-1.857132867519352
 30
0.0
 10
2.122285844904152
 20
-1.821315647504838
 30
0.0
 10
2.122285844906123
 20
-1.777132867520954
 30
0.0
 10
2.122285844908118
 20
-1.732950087536943
 30
0.0
 10
2.086468624893693
 20
-1.697132867519346
 30
0.0
 10
2.042285844909682
 20
-1.697132867517363
 30
0.0
 10
1.998103064925721
 20
-1.69713286751538
 30
0.0
 10
1.962285844908011
 20
-1.732950087529768
 30
0.0
 10
1.962285844906015
 20
-1.777132867513779
 30
0.0
  0
SPLINE
  5
43
330
1F
100
AcDbEntity
  8
Layer 1
 62
   250
420
  2236191
370
    35
100
AcDbSpline
210
0.0
220
0.0
230
1.0
 70
    11
 71
     3
 72
    17
 73
    13
 74
     0
 42
0.0000000001
 43
0.0000000001
 12
1.0
 22
0.0
 32
0.0
 13
1.0
 23
0.0
 33
0.0
 40
0.0
 40
0.0
 40
0.0
 40
0.0
 40
1.0
 40
1.0
 40
1.0
 40
2.0
 40
2.0
 40
2.0
 40
3.0
 40
3.0
 40
3.0
 40
4.0
 40
4.0
 40
4.0
 40
4.0
 10
2.084884269862616
 20
-7.130203733660967
 30
0.0
 10
2.040701489878655
 20
-7.130203733658997
 30
0.0
 10
2.004884269861047
 20
-7.166020953673447
 30
0.0
 10
2.004884269859051
 20
-7.210203733657358
 30
0.0
 10
2.00488426985708
 20
-7.254386513641369
 30
0.0
 10
2.040701489871481
 20
-7.290203733658952
 30
0.0
 10
2.084884269855441
 20
-7.290203733660923
 30
0.0
 10
2.129067049839452
 20
-7.290203733662919
 30
0.0
 10
2.164884269857086
 20
-7.254386513648543
 30
0.0
 10
2.164884269859057
 20
-7.210203733664533
 30
0.0
 10
2.164884269861052
 20
-7.166020953680622
 30
0.0
 10
2.129067049846627
 20
-7.130203733662963
 30
0.0
 10
2.084884269862616
 20
-7.130203733660967
 30
0.0
  0
SPLINE
  5
44
330
1F
100
AcDbEntity
  8
Layer 1
 62
   250
420
  2236191
370
    35
100
AcDbSpline
210
0.0
220
0.0
230
1.0
 70
    11
 71
     3
 72
    17
 73
    13
 74
     0
 42
0.0000000001
 43
0.0000000001
 12
1.0
 22
0.0
 32
0.0
 13
1.0
 23
0.0
 33
0.0
 40
0.0
 40
0.0
 40
0.0
 40
0.0
 40
1.0
 40
1.0
 40
1.0
 40
2.0
 40
2.0
 40
2.0
 40
3.0
 40
3.0
 40
3.0
 40
4.0
 40
4.0
 40
4.0
 40
4.0
 10
4.875671671476286
 20
-6.265321844022487
 30
0.0
 10
4.87567167147429
 20
-6.309504624006548
 30
0.0
 10
4.911488891488716
 20
-6.345321844024106
 30
0.0
 10
4.955671671472676
 20
-6.345321844026103
 30
0.0
 10
4.999854451456687
 20
-6.345321844028073
 30
0.0
 10
5.035671671474296
 20
-6.309504624013723
 30
0.0
 10
5.035671671476292
 20
-6.265321844029661
 30
0.0
 10
5.035671671478263
 20
-6.221139064045651
 30
0.0
 10
4.999854451463888
 20
-6.185321844028067
 30
0.0
 10
4.955671671479877
 20
-6.185321844026096
 30
0.0
 10
4.911488891495891
 20
-6.1853218440241
 30
0.0
 10
4.875671671478257
 20
-6.221139064038476
 30
0.0
 10
4.875671671476286
 20
-6.265321844022487
 30
0.0
  0
POLYLINE
  5
45
330
1F
100
AcDbEntity
  8
Layer 1
 62
   250
420
  2236191
370
    35
100
AcDb2dPolyline
 66
     1
 10
0.0
 20
0.0
 30
0.0
  0
VERTEX
  5
46
330
45
100
AcDbEntity
  8
Layer 1
 62
   250
420
  2236191
370
    35
100
AcDbVertex
100
AcDb2dVertex
 10
2.084884270095876
 20
-1.934613182479842
 30
0.0
  0
VERTEX
  5
76
330
45
100
AcDbEntity
  8
0
100
AcDbVertex
100
AcDb2dVertex
 10
2.084884270095876
 20
-1.934613182479842
 30
0.0
  0
SEQEND
  5
47
330
45
100
AcDbEntity
  8
Layer 1
 62
   250
420
  2236191
370
    35
  0
POLYLINE
  5
48
330
1F
100
AcDbEntity
  8
Layer 1
 62
   250
420
  2236191
370
    35
100
AcDb2dPolyline
 66
     1
 10
0.0
 20
0.0
 30
0.0
  0
VERTEX
  5
49
330
48
100
AcDbEntity
  8
Layer 1
 62
   250
420
  2236191
370
    35
100
AcDbVertex
100
AcDb2dVertex
 10
4.955671671670719
 20
-1.934613182608738
 30
0.0
  0
VERTEX
  5
77
330
48
100
AcDbEntity
  8
0
100
AcDbVertex
100
AcDb2dVertex
 10
4.955671671670719
 20
-1.934613182608738
 30
0.0
  0
SEQEND
  5
4A
330
48
100
AcDbEntity
  8
Layer 1
 62
   250
420
  2236191
370
    35
  0
POLYLINE
  5
4B
330
1F
100
AcDbEntity
  8
Layer 1
 62
   250
420
  2236191
370
    35
100
AcDb2dPolyline
 66
     1
 10
0.0
 20
0.0
 30
0.0
  0
VERTEX
  5
4C
330
4B
100
AcDbEntity
  8
Layer 1
 62
   250
420
  2236191
370
    35
100
AcDbVertex
100
AcDb2dVertex
 10
3.521892143996764
 20
-4.493668300654627
 30
0.0
  0
VERTEX
  5
4D
330
4B
100
AcDbEntity
  8
Layer 1
 62
   250
420
  2236191
370
    35
100
AcDbVertex
100
AcDb2dVertex
 10
3.521892143996764
 20
-4.493668300654627
 30
0.0
  0
SEQEND
  5
4E
330
4B
100
AcDbEntity
  8
Layer 1
 62
   250
420
  2236191
370
    35
  0
SPLINE
  5
4F
330
1F
100
AcDbEntity
  8
Layer 1
 62
   250
420
  2236191
370
    35
100
AcDbSpline
210
0.0
220
0.0
230
1.0
 70
    11
 71
     3
 72
    17
 73
    13
 74
     0
 42
0.0000000001
 43
0.0000000001
 12
1.0
 22
0.0
 32
0.0
 13
1.0
 23
0.0
 33
0.0
 40
0.0
 40
0.0
 40
0.0
 40
0.0
 40
1.0
 40
1.0
 40
1.0
 40
2.0
 40
2.0
 40
2.0
 40
3.0
 40
3.0
 40
3.0
 40
4.0
 40
4.0
 40
4.0
 40
4.0
 10
4.875671671675869
 20
-2.722014757408323
 30
0.0
 10
4.875671671673873
 20
-2.766197537392372
 30
0.0
 10
4.911488891688299
 20
-2.802014757409956
 30
0.0
 10
4.95567167167226
 20
-2.802014757411926
 30
0.0
 10
4.999854451656271
 20
-2.802014757413897
 30
0.0
 10
5.03567167167388
 20
-2.766197537399547
 30
0.0
 10
5.035671671675876
 20
-2.722014757415498
 30
0.0
 10
5.035671671677846
 20
-2.677831977431487
 30
0.0
 10
4.999854451663471
 20
-2.642014757413904
 30
0.0
 10
4.95567167167946
 20
-2.642014757411933
 30
0.0
 10
4.911488891695474
 20
-2.642014757409937
 30
0.0
 10
4.87567167167784
 20
-2.677831977424312
 30
0.0
 10
4.875671671675869
 20
-2.722014757408323
 30
0.0
  0
INSERT
  5
51
330
1F
100
AcDbEntity
  8
Layer 1
100
AcDbBlockReference
  2
block 2
 10
0.0
 20
0.0
 30
0.0
  0
SPLINE
  5
74
330
1F
100
AcDbEntity
  8
Layer 1
 62
   250
420
  2236191
370
    35
100
AcDbSpline
210
0.0
220
0.0
230
1.0
 70
    11
 71
     3
 72
   134
 73
   130
 74
     0
 42
0.0000000001
 43
0.0000000001
 12
1.0
 22
0.0
 32
0.0
 13
1.0
 23
0.0
 33
0.0
 40
0.0
 40
0.0
 40
0.0
 40
0.0
 40
1.0
 40
1.0
 40
1.0
 40
2.0
 40
2.0
 40
2.0
 40
3.0
 40
3.0
 40
3.0
 40
4.0
 40
4.0
 40
4.0
 40
5.0
 40
5.0
 40
5.0
 40
6.0
 40
6.0
 40
6.0
 40
7.0
 40
7.0
 40
7.0
 40
8.0
 40
8.0
 40
8.0
 40
9.0
 40
9.0
 40
9.0
 40
10.0
 40
10.0
 40
10.0
 40
11.0
 40
11.0
 40
11.0
 40
12.0
 40
12.0
 40
12.0
 40
13.0
 40
13.0
 40
13.0
 40
14.0
 40
14.0
 40
14.0
 40
15.0
 40
15.0
 40
15.0
 40
16.0
 40
16.0
 40
16.0
 40
17.0
 40
17.0
 40
17.0
 40
18.0
 40
18.0
 40
18.0
 40
19.0
 40
19.0
 40
19.0
 40
20.0
 40
20.0
 40
20.0
 40
21.0
 40
21.0
 40
21.0
 40
22.0
 40
22.0
 40
22.0
 40
23.0
 40
23.0
 40
23.0
 40
24.0
 40
24.0
 40
24.0
 40
25.0
 40
25.0
 40
25.0
 40
26.0
 40
26.0
 40
26.0
 40
27.0
 40
27.0
 40
27.0
 40
28.0
 40
28.0
 40
28.0
 40
29.0
 40
29.0
 40
29.0
 40
30.0
 40
30.0
 40
30.0
 40
31.0
 40
31.0
 40
31.0
 40
32.0
 40
32.0
 40
32.0
 40
33.0
 40
33.0
 40
33.0
 40
34.0
 40
34.0
 40
34.0
 40
35.0
 40
35.0
 40
35.0
 40
36.0
 40
36.0
 40
36.0
 40
37.0
 40
37.0
 40
37.0
 40
38.0
 40
38.0
 40
38.0
 40
39.0
 40
39.0
 40
39.0
 40
40.0
 40
40.0
 40
40.0
 40
41.0
 40
41.0
 40
41.0
 40
42.0
 40
42.0
 40
42.0
 40
43.0
 40
43.0
 40
43.0
 40
43.0
 10
4.913073221842447
 20
-1.777132670084635
 30
0.0
 10
4.913073221842447
 20
-1.777132670084635
 30
0.0
 10
4.762049357096354
 20
-1.777132670084635
 30
0.0
 10
4.762049357096354
 20
-1.777132670084635
 30
0.0
 10
4.738522965355969
 20
-1.777132670084635
 30
0.0
 10
4.719451056586371
 20
-1.796204578854246
 30
0.0
 10
4.719451056586371
 20
-1.819730970594618
 30
0.0
 10
4.719451056586371
 20
-1.819730970594618
 30
0.0
 10
4.719451056586371
 20
-1.894534640842014
 30
0.0
 10
4.719451056586371
 20
-1.894534640842014
 30
0.0
 10
4.719451056586371
 20
-1.918061032582386
 30
0.0
 10
4.700379147816774
 20
-1.937132941351996
 30
0.0
 10
4.676852756076388
 20
-1.937132941351996
 30
0.0
 10
4.676852756076388
 20
-1.937132941351996
 30
0.0
 10
4.561971028645833
 20
-1.937132941351996
 30
0.0
 10
4.561971028645833
 20
-1.937132941351996
 30
0.0
 10
4.561971028645833
 20
-1.937132941351996
 30
0.0
 10
4.446407741970486
 20
-1.93528323703342
 30
0.0
 10
4.446407741970486
 20
-1.93528323703342
 30
0.0
 10
4.423149566796888
 20
-1.934910967013252
 30
0.0
 10
4.404490152994791
 20
-1.915950500860655
 30
0.0
 10
4.404490152994791
 20
-1.892689346603523
 30
0.0
 10
4.404490152994791
 20
-1.892689346603523
 30
0.0
 10
4.404490152994791
 20
-1.819730970594618
 30
0.0
 10
4.404490152994791
 20
-1.819730970594618
 30
0.0
 10
4.404490152994791
 20
-1.796204578854246
 30
0.0
 10
4.385418244225194
 20
-1.777132670084635
 30
0.0
 10
4.361891852484809
 20
-1.777132670084635
 30
0.0
 10
4.361891852484809
 20
-1.777132670084635
 30
0.0
 10
2.242364671495225
 20
-1.777132670084635
 30
0.0
 10
2.242364671495225
 20
-1.777132670084635
 30
0.0
 10
2.218838279754853
 20
-1.777132670084635
 30
0.0
 10
2.199766370985243
 20
-1.796204578854246
 30
0.0
 10
2.199766370985243
 20
-1.819730970594618
 30
0.0
 10
2.199766370985243
 20
-1.819730970594618
 30
0.0
 10
2.199766370985243
 20
-1.894534640842014
 30
0.0
 10
2.199766370985243
 20
-1.894534640842014
 30
0.0
 10
2.199766370985243
 20
-1.918061032582386
 30
0.0
 10
2.180694462215633
 20
-1.937132941351996
 30
0.0
 10
2.15716807047526
 20
-1.937132941351996
 30
0.0
 10
2.15716807047526
 20
-1.937132941351996
 30
0.0
 10
2.084884643554688
 20
-1.937132941351996
 30
0.0
 10
2.084884643554688
 20
-1.937132941351996
 30
0.0
 10
2.061357783636734
 20
-1.937132941351996
 30
0.0
 10
2.042285495334201
 20
-1.956205229654529
 30
0.0
 10
2.042285495334201
 20
-1.979732089572483
 30
0.0
 10
2.042285495334201
 20
-1.979732089572483
 30
0.0
 10
2.042285495334201
 20
-7.007604810926649
 30
0.0
 10
2.042285495334201
 20
-7.007604810926649
 30
0.0
 10
2.042285495334201
 20
-7.031131202667034
 30
0.0
 10
2.061357404103811
 20
-7.050203111436631
 30
0.0
 10
2.084883795844184
 20
-7.050203111436631
 30
0.0
 10
2.084883795844184
 20
-7.050203111436631
 30
0.0
 10
2.202284918891059
 20
-7.050203111436631
 30
0.0
 10
2.202284918891059
 20
-7.050203111436631
 30
0.0
 10
2.225811778809013
 20
-7.050203111436631
 30
0.0
 10
2.244884067111545
 20
-7.069275399739151
 30
0.0
 10
2.244884067111545
 20
-7.092802259657118
 30
0.0
 10
2.244884067111545
 20
-7.092802259657118
 30
0.0
 10
2.244884067111545
 20
-7.16760508219401
 30
0.0
 10
2.244884067111545
 20
-7.16760508219401
 30
0.0
 10
2.244884067111545
 20
-7.191131473934395
 30
0.0
 10
2.263955975881155
 20
-7.210203382703993
 30
0.0
 10
2.287482367621528
 20
-7.210203382703993
 30
0.0
 10
2.287482367621528
 20
-7.210203382703993
 30
0.0
 10
4.913073221842447
 20
-7.210203382703993
 30
0.0
 10
4.913073221842447
 20
-7.210203382703993
 30
0.0
 10
4.936599613582833
 20
-7.210203382703993
 30
0.0
 10
4.95567152235243
 20
-7.191131473934395
 30
0.0
 10
4.95567152235243
 20
-7.16760508219401
 30
0.0
 10
4.95567152235243
 20
-7.16760508219401
 30
0.0
 10
4.95567152235243
 20
-6.4679200914171
 30
0.0
 10
4.95567152235243
 20
-6.4679200914171
 30
0.0
 10
4.95567152235243
 20
-6.444393699676715
 30
0.0
 10
4.936599613582833
 20
-6.425321790907118
 30
0.0
 10
4.913073221842447
 20
-6.425321790907118
 30
0.0
 10
4.913073221842447
 20
-6.425321790907118
 30
0.0
 10
4.838270399305555
 20
-6.425321790907118
 30
0.0
 10
4.838270399305555
 20
-6.425321790907118
 30
0.0
 10
4.814743539387589
 20
-6.425321790907118
 30
0.0
 10
4.795671251085069
 20
-6.406249502604598
 30
0.0
 10
4.795671251085069
 20
-6.382722642686631
 30
0.0
 10
4.795671251085069
 20
-6.382722642686631
 30
0.0
 10
4.795671251085069
 20
-6.265321519639756
 30
0.0
 10
4.795671251085069
 20
-6.265321519639756
 30
0.0
 10
4.795671251085069
 20
-6.265321519639756
 30
0.0
 10
4.795671251085069
 20
-6.147920396592881
 30
0.0
 10
4.795671251085069
 20
-6.147920396592881
 30
0.0
 10
4.795671251085069
 20
-6.124393536674916
 30
0.0
 10
4.814743539387589
 20
-6.105321248372396
 30
0.0
 10
4.838270399305555
 20
-6.105321248372396
 30
0.0
 10
4.838270399305555
 20
-6.105321248372396
 30
0.0
 10
4.913073221842447
 20
-6.105321248372396
 30
0.0
 10
4.913073221842447
 20
-6.105321248372396
 30
0.0
 10
4.936599613582833
 20
-6.105321248372396
 30
0.0
 10
4.95567152235243
 20
-6.086249339602798
 30
0.0
 10
4.95567152235243
 20
-6.062722947862413
 30
0.0
 10
4.95567152235243
 20
-6.062722947862413
 30
0.0
 10
4.95567152235243
 20
-3.001528322307119
 30
0.0
 10
4.95567152235243
 20
-3.001528322307119
 30
0.0
 10
4.95567152235243
 20
-2.949696905312951
 30
0.0
 10
4.913653856948334
 20
-2.907679239908854
 30
0.0
 10
4.861822439954166
 20
-2.907679239908854
 30
0.0
 10
4.861822439954166
 20
-2.907679239908854
 30
0.0
 10
4.758881363214237
 20
-2.907679239908854
 30
0.0
 10
4.758881363214237
 20
-2.907679239908854
 30
0.0
 10
4.707049946220068
 20
-2.907679239908854
 30
0.0
 10
4.665032280815972
 20
-2.865661574504757
 30
0.0
 10
4.665032280815972
 20
-2.813830157510589
 30
0.0
 10
4.665032280815972
 20
-2.813830157510589
 30
0.0
 10
4.665032280815972
 20
-2.621626860176042
 30
0.0
 10
4.665032280815972
 20
-2.621626860176042
 30
0.0
 10
4.665032280815972
 20
-2.569795443181874
 30
0.0
 10
4.707049946220068
 20
-2.527777777777778
 30
0.0
 10
4.758881363214237
 20
-2.527777777777778
 30
0.0
 10
4.758881363214237
 20
-2.527777777777778
 30
0.0
 10
4.861822439954166
 20
-2.527777777777778
 30
0.0
 10
4.861822439954166
 20
-2.527777777777778
 30
0.0
 10
4.913653856948334
 20
-2.527777777777778
 30
0.0
 10
4.95567152235243
 20
-2.485760112373681
 30
0.0
 10
4.95567152235243
 20
-2.433928695379513
 30
0.0
 10
4.95567152235243
 20
-2.433928695379513
 30
0.0
 10
4.95567152235243
 20
-1.940689934624566
 30
0.0
 10
4.95567152235243
 20
-1.940689934624566
 30
0.0
 10
4.95567152235243
 20
-1.940689934624566
 30
0.0
 10
4.95567152235243
 20
-1.819730970594618
 30
0.0
 10
4.95567152235243
 20
-1.819730970594618
 30
0.0
 10
4.95567152235243
 20
-1.796204578854246
 30
0.0
 10
4.936599613582833
 20
-1.777132670084635
 30
0.0
 10
4.913073221842447
 20
-1.777132670084635
 30
0.0
  0
SPLINE
  5
75
330
1F
100
AcDbEntity
  8
Layer 1
 62
   250
420
  2236191
370
    35
100
AcDbSpline
210
0.0
220
0.0
230
1.0
 70
    11
 71
     3
 72
    98
 73
    94
 74
     0
 42
0.0000000001
 43
0.0000000001
 12
1.0
 22
0.0
 32
0.0
 13
1.0
 23
0.0
 33
0.0
 40
0.0
 40
0.0
 40
0.0
 40
0.0
 40
1.0
 40
1.0
 40
1.0
 40
2.0
 40
2.0
 40
2.0
 40
3.0
 40
3.0
 40
3.0
 40
4.0
 40
4.0
 40
4.0
 40
5.0
 40
5.0
 40
5.0
 40
6.0
 40
6.0
 40
6.0
 40
7.0
 40
7.0
 40
7.0
 40
8.0
 40
8.0
 40
8.0
 40
9.0
 40
9.0
 40
9.0
 40
10.0
 40
10.0
 40
10.0
 40
11.0
 40
11.0
 40
11.0
 40
12.0
 40
12.0
 40
12.0
 40
13.0
 40
13.0
 40
13.0
 40
14.0
 40
14.0
 40
14.0
 40
15.0
 40
15.0
 40
15.0
 40
16.0
 40
16.0
 40
16.0
 40
17.0
 40
17.0
 40
17.0
 40
18.0
 40
18.0
 40
18.0
 40
19.0
 40
19.0
 40
19.0
 40
20.0
 40
20.0
 40
20.0
 40
21.0
 40
21.0
 40
21.0
 40
22.0
 40
22.0
 40
22.0
 40
23.0
 40
23.0
 40
23.0
 40
24.0
 40
24.0
 40
24.0
 40
25.0
 40
25.0
 40
25.0
 40
26.0
 40
26.0
 40
26.0
 40
27.0
 40
27.0
 40
27.0
 40
28.0
 40
28.0
 40
28.0
 40
29.0
 40
29.0
 40
29.0
 40
30.0
 40
30.0
 40
30.0
 40
31.0
 40
31.0
 40
31.0
 40
31.0
 10
2.323628743489583
 20
-7.1314697265625
 30
0.0
 10
2.323628743489583
 20
-7.1314697265625
 30
0.0
 10
2.323628743489583
 20
-7.092800564236111
 30
0.0
 10
2.323628743489583
 20
-7.092800564236111
 30
0.0
 10
2.323628743489583
 20
-7.025892469618055
 30
0.0
 10
2.269192165798611
 20
-6.971462673611111
 30
0.0
 10
2.202284071180555
 20
-6.971462673611111
 30
0.0
 10
2.202284071180555
 20
-6.971462673611111
 30
0.0
 10
2.121025933159722
 20
-6.971462673611111
 30
0.0
 10
2.121025933159722
 20
-6.971462673611111
 30
0.0
 10
2.121025933159722
 20
-6.971462673611111
 30
0.0
 10
2.121025933159722
 20
-2.015875922309028
 30
0.0
 10
2.121025933159722
 20
-2.015875922309028
 30
0.0
 10
2.121025933159722
 20
-2.015875922309028
 30
0.0
 10
2.15716552734375
 20
-2.015875922309028
 30
0.0
 10
2.15716552734375
 20
-2.015875922309028
 30
0.0
 10
2.224073621961805
 20
-2.015875922309028
 30
0.0
 10
2.278510199652778
 20
-1.961439344618055
 30
0.0
 10
2.278510199652778
 20
-1.89453125
 30
0.0
 10
2.278510199652778
 20
-1.89453125
 30
0.0
 10
2.278510199652778
 20
-1.855875651041667
 30
0.0
 10
2.278510199652778
 20
-1.855875651041667
 30
0.0
 10
2.278510199652778
 20
-1.855875651041667
 30
0.0
 10
4.325751410590278
 20
-1.855875651041667
 30
0.0
 10
4.325751410590278
 20
-1.855875651041667
 30
0.0
 10
4.325751410590278
 20
-1.855875651041667
 30
0.0
 10
4.325751410590278
 20
-1.892686631944444
 30
0.0
 10
4.325751410590278
 20
-1.892686631944444
 30
0.0
 10
4.325751410590278
 20
-1.958530002170139
 30
0.0
 10
4.379313151041666
 20
-2.012959798177083
 30
0.0
 10
4.445149739583333
 20
-2.014010959201389
 30
0.0
 10
4.445149739583333
 20
-2.014010959201389
 30
0.0
 10
4.560709635416666
 20
-2.015862358940972
 30
0.0
 10
4.560709635416666
 20
-2.015862358940972
 30
0.0
 10
4.560709635416666
 20
-2.015862358940972
 30
0.0
 10
4.676852756076388
 20
-2.015875922309028
 30
0.0
 10
4.676852756076388
 20
-2.015875922309028
 30
0.0
 10
4.743760850694444
 20
-2.015875922309028
 30
0.0
 10
4.798190646701388
 20
-1.961439344618055
 30
0.0
 10
4.798190646701388
 20
-1.89453125
 30
0.0
 10
4.798190646701388
 20
-1.89453125
 30
0.0
 10
4.798190646701388
 20
-1.855875651041667
 30
0.0
 10
4.798190646701388
 20
-1.855875651041667
 30
0.0
 10
4.798190646701388
 20
-1.855875651041667
 30
0.0
 10
4.876939561631944
 20
-1.855875651041667
 30
0.0
 10
4.876939561631944
 20
-1.855875651041667
 30
0.0
 10
4.876939561631944
 20
-1.855875651041667
 30
0.0
 10
4.876939561631944
 20
-2.433926052517361
 30
0.0
 10
4.876939561631944
 20
-2.433926052517361
 30
0.0
 10
4.876939561631944
 20
-2.4422607421875
 30
0.0
 10
4.870157877604166
 20
-2.44903564453125
 30
0.0
 10
4.86181640625
 20
-2.44903564453125
 30
0.0
 10
4.86181640625
 20
-2.44903564453125
 30
0.0
 10
4.758884006076388
 20
-2.44903564453125
 30
0.0
 10
4.758884006076388
 20
-2.44903564453125
 30
0.0
 10
4.663723415798611
 20
-2.44903564453125
 30
0.0
 10
4.5863037109375
 20
-2.526462131076389
 30
0.0
 10
4.5863037109375
 20
-2.621629503038194
 30
0.0
 10
4.5863037109375
 20
-2.621629503038194
 30
0.0
 10
4.5863037109375
 20
-2.813829210069444
 30
0.0
 10
4.5863037109375
 20
-2.813829210069444
 30
0.0
 10
4.5863037109375
 20
-2.90899658203125
 30
0.0
 10
4.663723415798611
 20
-2.986423068576389
 30
0.0
 10
4.758884006076388
 20
-2.986423068576389
 30
0.0
 10
4.758884006076388
 20
-2.986423068576389
 30
0.0
 10
4.86181640625
 20
-2.986423068576389
 30
0.0
 10
4.86181640625
 20
-2.986423068576389
 30
0.0
 10
4.870157877604166
 20
-2.986423068576389
 30
0.0
 10
4.876939561631944
 20
-2.993197970920139
 30
0.0
 10
4.876939561631944
 20
-3.00152587890625
 30
0.0
 10
4.876939561631944
 20
-3.00152587890625
 30
0.0
 10
4.876939561631944
 20
-6.026584201388888
 30
0.0
 10
4.876939561631944
 20
-6.026584201388888
 30
0.0
 10
4.876939561631944
 20
-6.026584201388888
 30
0.0
 10
4.838270399305555
 20
-6.026584201388888
 30
0.0
 10
4.838270399305555
 20
-6.026584201388888
 30
0.0
 10
4.7713623046875
 20
-6.026584201388888
 30
0.0
 10
4.716932508680555
 20
-6.081013997395833
 30
0.0
 10
4.716932508680555
 20
-6.147922092013888
 30
0.0
 10
4.716932508680555
 20
-6.147922092013888
 30
0.0
 10
4.716932508680555
 20
-6.382717556423611
 30
0.0
 10
4.716932508680555
 20
-6.382717556423611
 30
0.0
 10
4.716932508680555
 20
-6.449625651041666
 30
0.0
 10
4.7713623046875
 20
-6.504055447048611
 30
0.0
 10
4.838270399305555
 20
-6.504055447048611
 30
0.0
 10
4.838270399305555
 20
-6.504055447048611
 30
0.0
 10
4.876939561631944
 20
-6.504055447048611
 30
0.0
 10
4.876939561631944
 20
-6.504055447048611
 30
0.0
 10
4.876939561631944
 20
-6.504055447048611
 30
0.0
 10
4.876939561631944
 20
-7.1314697265625
 30
0.0
 10
4.876939561631944
 20
-7.1314697265625
 30
0.0
 10
4.876939561631944
 20
-7.1314697265625
 30
0.0
 10
2.323628743489583
 20
-7.1314697265625
 30
0.0
 10
2.323628743489583
 20
-7.1314697265625
 30
0.0
  0
ENDSEC
  0
SECTION
  2
OBJECTS
  0
DICTIONARY
  5
C
330
0
100
AcDbDictionary
281
     1
  3
ACAD_GROUP
350
D
  3
ACAD_LAYOUT
350
1A
  3
ACAD_MATERIAL
350
3B
  3
ACAD_MLEADERSTYLE
350
79
  3
ACAD_MLINESTYLE
350
17
  3
ACAD_PLOTSETTINGS
350
19
  3
ACAD_PLOTSTYLENAME
350
E
  3
ACAD_TABLESTYLE
350
78
  3
ACAD_VISUALSTYLE
350
2A
  0
SUN
  5
3F
330
29
100
AcDbSun
 90
        1
290
     0
 63
     7
421
 16777215
 40
1.0
291
     1
 91
  2455826
 92
 54000000
292
     0
 70
     2
 71
   256
280
     1
  0
DICTIONARY
  5
D
102
{ACAD_REACTORS
330
C
102
}
330
C
100
AcDbDictionary
281
     1
  0
DICTIONARY
  5
1A
102
{ACAD_REACTORS
330
C
102
}
330
C
100
AcDbDictionary
281
     1
  3
Layout1
350
1E
  3
Layout2
350
26
  3
Model
350
22
  0
DICTIONARY
  5
3B
102
{ACAD_REACTORS
330
C
102
}
330
C
100
AcDbDictionary
281
     1
  3
ByBlock
350
3D
  3
ByLayer
350
3C
  3
Global
350
3E
  0
DICTIONARY
  5
79
102
{ACAD_REACTORS
330
C
102
}
330
C
100
AcDbDictionary
281
     1
  0
DICTIONARY
  5
17
102
{ACAD_REACTORS
330
C
102
}
330
C
100
AcDbDictionary
281
     1
  3
Standard
350
18
  0
DICTIONARY
  5
19
102
{ACAD_REACTORS
330
C
102
}
330
C
100
AcDbDictionary
281
     1
  0
ACDBDICTIONARYWDFLT
  5
E
102
{ACAD_REACTORS
330
C
102
}
330
C
100
AcDbDictionary
281
     1
  3
Normal
350
F
100
AcDbDictionaryWithDefault
340
F
  0
DICTIONARY
  5
78
102
{ACAD_REACTORS
330
C
102
}
330
C
100
AcDbDictionary
281
     1
  0
DICTIONARY
  5
2A
102
{ACAD_REACTORS
330
C
102
}
330
C
100
AcDbDictionary
281
     1
  3
2dWireframe
350
2F
  3
3D Hidden
350
31
  3
3dWireframe
350
30
  3
Basic
350
32
  3
Brighten
350
36
  3
ColorChange
350
3A
  3
Conceptual
350
34
  3
Dim
350
35
  3
Facepattern
350
39
  3
Flat
350
2B
  3
FlatWithEdges
350
2C
  3
Gouraud
350
2D
  3
GouraudWithEdges
350
2E
  3
Linepattern
350
38
  3
Realistic
350
33
  3
Thicken
350
37
  0
LAYOUT
  5
1E
102
{ACAD_REACTORS
330
1A
102
}
330
1A
100
AcDbPlotSettings
  1

  2
none_device
  4

  6

 40
0.0
 41
0.0
 42
0.0
 43
0.0
 44
0.0
 45
0.0
 46
0.0
 47
0.0
 48
0.0
 49
0.0
140
0.0
141
0.0
142
1.0
143
1.0
 70
   688
 72
     0
 73
     0
 74
     5
  7

 75
    16
 76
     0
 77
     2
 78
   300
147
1.0
148
0.0
149
0.0
100
AcDbLayout
  1
Layout1
 70
     1
 71
     1
 10
0.0
 20
0.0
 11
12.0
 21
9.0
 12
0.0
 22
0.0
 32
0.0
 14
1.000000000000000E+20
 24
1.000000000000000E+20
 34
1.000000000000000E+20
 15
-1.000000000000000E+20
 25
-1.000000000000000E+20
 35
-1.000000000000000E+20
146
0.0
 13
0.0
 23
0.0
 33
0.0
 16
1.0
 26
0.0
 36
0.0
 17
0.0
 27
1.0
 37
0.0
 76
     0
330
1B
  0
LAYOUT
  5
26
102
{ACAD_REACTORS
330
1A
102
}
330
1A
100
AcDbPlotSettings
  1

  2
none_device
  4

  6

 40
0.0
 41
0.0
 42
0.0
 43
0.0
 44
0.0
 45
0.0
 46
0.0
 47
0.0
 48
0.0
 49
0.0
140
0.0
141
0.0
142
1.0
143
1.0
 70
   688
 72
     0
 73
     0
 74
     5
  7

 75
    16
 76
     0
 77
     2
 78
   300
147
1.0
148
0.0
149
0.0
100
AcDbLayout
  1
Layout2
 70
     1
 71
     2
 10
0.0
 20
0.0
 11
0.0
 21
0.0
 12
0.0
 22
0.0
 32
0.0
 14
0.0
 24
0.0
 34
0.0
 15
0.0
 25
0.0
 35
0.0
146
0.0
 13
0.0
 23
0.0
 33
0.0
 16
1.0
 26
0.0
 36
0.0
 17
0.0
 27
1.0
 37
0.0
 76
     0
330
23
  0
LAYOUT
  5
22
102
{ACAD_REACTORS
330
1A
102
}
330
1A
100
AcDbPlotSettings
  1

  2
none_device
  4

  6

 40
0.0
 41
0.0
 42
0.0
 43
0.0
 44
0.0
 45
0.0
 46
0.0
 47
0.0
 48
0.0
 49
0.0
140
0.0
141
0.0
142
1.0
143
1.0
 70
  1712
 72
     0
 73
     0
 74
     0
  7

 75
     0
 76
     0
 77
     2
 78
   300
147
1.0
148
0.0
149
0.0
100
AcDbLayout
  1
Model
 70
     1
 71
     0
 10
0.0
 20
0.0
 11
12.0
 21
9.0
 12
0.0
 22
0.0
 32
0.0
 14
1.000000000000000E+20
 24
1.000000000000000E+20
 34
1.000000000000000E+20
 15
-1.000000000000000E+20
 25
-1.000000000000000E+20
 35
-1.000000000000000E+20
146
0.0
 13
0.0
 23
0.0
 33
0.0
 16
1.0
 26
0.0
 36
0.0
 17
0.0
 27
1.0
 37
0.0
 76
     0
330
1F
331
29
  0
MATERIAL
  5
3D
102
{ACAD_REACTORS
330
3B
102
}
330
3B
100
AcDbMaterial
  1
ByBlock
 72
     1
 94
      127
  0
MATERIAL
  5
3C
102
{ACAD_REACTORS
330
3B
102
}
330
3B
100
AcDbMaterial
  1
ByLayer
 72
     1
 94
      127
  0
MATERIAL
  5
3E
102
{ACAD_REACTORS
330
3B
102
}
330
3B
100
AcDbMaterial
  1
Global
 72
     1
 94
      127
  0
MLINESTYLE
  5
18
102
{ACAD_REACTORS
330
17
102
}
330
17
100
AcDbMlineStyle
  2
Standard
 70
     0
  3

 62
   256
 51
90.0
 52
90.0
 71
     2
 49
0.5
 62
   256
  6
BYLAYER
 49
-0.5
 62
   256
  6
BYLAYER
  0
ACDBPLACEHOLDER
  5
F
102
{ACAD_REACTORS
330
E
102
}
330
E
  0
VISUALSTYLE
  5
2F
102
{ACAD_REACTORS
330
2A
102
}
330
2A
100
AcDbVisualStyle
  2
2dWireframe
 70
     4
177
     2
291
     0
 71
     0
176
     1
 72
     2
176
     1
 73
     0
176
     1
 90
        0
176
     1
 40
-0.6
176
     1
 41
-30.0
176
     1
 62
     5
 63
     7
421
 16777215
176
     1
 74
     1
176
     1
 91
        4
176
     1
 64
     7
176
     1
 65
   257
176
     1
 75
     1
176
     1
175
     1
176
     1
 42
1.0
176
     1
 92
        0
176
     1
 66
   257
176
     1
 43
1.0
176
     1
 76
     1
176
     1
 77
     6
176
     1
 78
     2
176
     1
 67
     7
176
     1
 79
     5
176
     1
170
     0
176
     1
171
     0
176
     1
290
     0
176
     1
 93
        1
176
     1
 44
0.0
176
     1
173
     0
176
     1
  0
VISUALSTYLE
  5
31
102
{ACAD_REACTORS
330
2A
102
}
330
2A
100
AcDbVisualStyle
  2
3D Hidden
 70
     6
177
     2
291
     0
 71
     1
176
     1
 72
     2
176
     1
 73
     2
176
     1
 90
        0
176
     1
 40
-0.6
176
     1
 41
-30.0
176
     1
 62
     5
 63
     7
421
 16777215
176
     1
 74
     2
176
     1
 91
        2
176
     1
 64
     7
176
     1
 65
   257
176
     1
 75
     2
176
     1
175
     1
176
     1
 42
40.0
176
     1
 92
        0
176
     1
 66
   257
176
     1
 43
1.0
176
     1
 76
     1
176
     1
 77
     6
176
     1
 78
     2
176
     1
 67
     7
176
     1
 79
     3
176
     1
170
     0
176
     1
171
     0
176
     1
290
     0
176
     1
 93
        1
176
     1
 44
0.0
176
     1
173
     0
176
     1
  0
VISUALSTYLE
  5
30
102
{ACAD_REACTORS
330
2A
102
}
330
2A
100
AcDbVisualStyle
  2
3dWireframe
 70
     5
177
     2
291
     0
 71
     0
176
     1
 72
     2
176
     1
 73
     0
176
     1
 90
        0
176
     1
 40
-0.6
176
     1
 41
-30.0
176
     1
 62
     5
 63
     7
421
 16777215
176
     1
 74
     1
176
     1
 91
        4
176
     1
 64
     7
176
     1
 65
   257
176
     1
 75
     1
176
     1
175
     1
176
     1
 42
1.0
176
     1
 92
        0
176
     1
 66
   257
176
     1
 43
1.0
176
     1
 76
     1
176
     1
 77
     6
176
     1
 78
     2
176
     1
 67
     7
176
     1
 79
     5
176
     1
170
     0
176
     1
171
     0
176
     1
290
     0
176
     1
 93
        1
176
     1
 44
0.0
176
     1
173
     0
176
     1
  0
VISUALSTYLE
  5
32
102
{ACAD_REACTORS
330
2A
102
}
330
2A
100
AcDbVisualStyle
  2
Basic
 70
     7
177
     2
291
     1
 71
     1
176
     1
 72
     0
176
     1
 73
     1
176
     1
 90
        0
176
     1
 40
-0.6
176
     1
 41
-30.0
176
     1
 62
     5
 63
     7
421
 16777215
176
     1
 74
     0
176
     1
 91
        4
176
     1
 64
     7
176
     1
 65
   257
176
     1
 75
     1
176
     1
175
     1
176
     1
 42
1.0
176
     1
 92
        8
176
     1
 66
     7
176
     1
 43
1.0
176
     1
 76
     1
176
     1
 77
     6
176
     1
 78
     2
176
     1
 67
     7
176
     1
 79
     5
176
     1
170
     0
176
     1
171
     0
176
     1
290
     0
176
     1
 93
        1
176
     1
 44
0.0
176
     1
173
     0
176
     1
  0
VISUALSTYLE
  5
36
102
{ACAD_REACTORS
330
2A
102
}
330
2A
100
AcDbVisualStyle
  2
Brighten
 70
    12
177
     2
291
     1
 71
     2
176
     1
 72
     2
176
     1
 73
     0
176
     1
 90
        0
176
     1
 40
-0.6
176
     1
 41
-30.0
176
     1
 62
     5
 63
     7
421
 16777215
176
     1
 74
     1
176
     1
 91
        4
176
     1
 64
     7
176
     1
 65
   257
176
     1
 75
     1
176
     1
175
     1
176
     1
 42
1.0
176
     1
 92
        8
176
     1
 66
     7
176
     1
 43
1.0
176
     1
 76
     1
176
     1
 77
     6
176
     1
 78
     2
176
     1
 67
     7
176
     1
 79
     5
176
     1
170
     0
176
     1
171
     0
176
     1
290
     0
176
     1
 93
        1
176
     1
 44
50.0
176
     1
173
     0
176
     1
  0
VISUALSTYLE
  5
3A
102
{ACAD_REACTORS
330
2A
102
}
330
2A
100
AcDbVisualStyle
  2
ColorChange
 70
    16
177
     2
291
     1
 71
     2
176
     1
 72
     2
176
     1
 73
     3
176
     1
 90
        0
176
     1
 40
-0.6
176
     1
 41
-30.0
176
     1
 62
     5
 63
     8
421
  8421504
176
     1
 74
     1
176
     1
 91
        4
176
     1
 64
     7
176
     1
 65
   257
176
     1
 75
     1
176
     1
175
     1
176
     1
 42
1.0
176
     1
 92
        8
176
     1
 66
     8
424
  8421504
176
     1
 43
1.0
176
     1
 76
     1
176
     1
 77
     6
176
     1
 78
     2
176
     1
 67
     7
176
     1
 79
     5
176
     1
170
     0
176
     1
171
     0
176
     1
290
     0
176
     1
 93
        1
176
     1
 44
0.0
176
     1
173
     0
176
     1
  0
VISUALSTYLE
  5
34
102
{ACAD_REACTORS
330
2A
102
}
330
2A
100
AcDbVisualStyle
  2
Conceptual
 70
     9
177
     2
291
     0
 71
     3
176
     1
 72
     2
176
     1
 73
     0
176
     1
 90
        0
176
     1
 40
-0.6
176
     1
 41
-30.0
176
     1
 62
     5
 63
     7
421
 16777215
176
     1
 74
     2
176
     1
 91
        2
176
     1
 64
     7
176
     1
 65
   257
176
     1
 75
     1
176
     1
175
     1
176
     1
 42
40.0
176
     1
 92
        8
176
     1
 66
     7
176
     1
 43
1.0
176
     1
 76
     1
176
     1
 77
     6
176
     1
 78
     2
176
     1
 67
     7
176
     1
 79
     3
176
     1
170
     0
176
     1
171
     0
176
     1
290
     0
176
     1
 93
        1
176
     1
 44
0.0
176
     1
173
     0
176
     1
  0
VISUALSTYLE
  5
35
102
{ACAD_REACTORS
330
2A
102
}
330
2A
100
AcDbVisualStyle
  2
Dim
 70
    11
177
     2
291
     1
 71
     2
176
     1
 72
     2
176
     1
 73
     0
176
     1
 90
        0
176
     1
 40
-0.6
176
     1
 41
-30.0
176
     1
 62
     5
 63
     7
421
 16777215
176
     1
 74
     1
176
     1
 91
        4
176
     1
 64
     7
176
     1
 65
   257
176
     1
 75
     1
176
     1
175
     1
176
     1
 42
1.0
176
     1
 92
        8
176
     1
 66
     7
176
     1
 43
1.0
176
     1
 76
     1
176
     1
 77
     6
176
     1
 78
     2
176
     1
 67
     7
176
     1
 79
     5
176
     1
170
     0
176
     1
171
     0
176
     1
290
     0
176
     1
 93
        1
176
     1
 44
-50.0
176
     1
173
     0
176
     1
  0
VISUALSTYLE
  5
39
102
{ACAD_REACTORS
330
2A
102
}
330
2A
100
AcDbVisualStyle
  2
Facepattern
 70
    15
177
     2
291
     1
 71
     2
176
     1
 72
     2
176
     1
 73
     0
176
     1
 90
        0
176
     1
 40
-0.6
176
     1
 41
-30.0
176
     1
 62
     5
 63
     7
421
 16777215
176
     1
 74
     1
176
     1
 91
        4
176
     1
 64
     7
176
     1
 65
   257
176
     1
 75
     1
176
     1
175
     1
176
     1
 42
1.0
176
     1
 92
        8
176
     1
 66
     7
176
     1
 43
1.0
176
     1
 76
     1
176
     1
 77
     6
176
     1
 78
     2
176
     1
 67
     7
176
     1
 79
     5
176
     1
170
     0
176
     1
171
     0
176
     1
290
     0
176
     1
 93
        1
176
     1
 44
0.0
176
     1
173
     0
176
     1
  0
VISUALSTYLE
  5
2B
102
{ACAD_REACTORS
330
2A
102
}
330
2A
100
AcDbVisualStyle
  2
Flat
 70
     0
177
     2
291
     1
 71
     2
176
     1
 72
     1
176
     1
 73
     1
176
     1
 90
        2
176
     1
 40
-0.6
176
     1
 41
30.0
176
     1
 62
     5
 63
     7
421
 16777215
176
     1
 74
     0
176
     1
 91
        4
176
     1
 64
     7
176
     1
 65
   257
176
     1
 75
     1
176
     1
175
     1
176
     1
 42
1.0
176
     1
 92
        8
176
     1
 66
     7
176
     1
 43
1.0
176
     1
 76
     1
176
     1
 77
     6
176
     1
 78
     2
176
     1
 67
     7
176
     1
 79
     5
176
     1
170
     0
176
     1
171
     0
176
     1
290
     0
176
     1
 93
       13
176
     1
 44
0.0
176
     1
173
     0
176
     1
  0
VISUALSTYLE
  5
2C
102
{ACAD_REACTORS
330
2A
102
}
330
2A
100
AcDbVisualStyle
  2
FlatWithEdges
 70
     1
177
     2
291
     1
 71
     2
176
     1
 72
     1
176
     1
 73
     1
176
     1
 90
        2
176
     1
 40
-0.6
176
     1
 41
30.0
176
     1
 62
     5
 63
     7
421
 16777215
176
     1
 74
     1
176
     1
 91
        4
176
     1
 64
     7
176
     1
 65
   257
176
     1
 75
     1
176
     1
175
     1
176
     1
 42
1.0
176
     1
 92
        0
176
     1
 66
   257
176
     1
 43
1.0
176
     1
 76
     1
176
     1
 77
     6
176
     1
 78
     2
176
     1
 67
     7
176
     1
 79
     5
176
     1
170
     0
176
     1
171
     0
176
     1
290
     0
176
     1
 93
       13
176
     1
 44
0.0
176
     1
173
     0
176
     1
  0
VISUALSTYLE
  5
2D
102
{ACAD_REACTORS
330
2A
102
}
330
2A
100
AcDbVisualStyle
  2
Gouraud
 70
     2
177
     2
291
     1
 71
     2
176
     1
 72
     2
176
     1
 73
     1
176
     1
 90
        2
176
     1
 40
-0.6
176
     1
 41
30.0
176
     1
 62
     5
 63
     7
421
 16777215
176
     1
 74
     0
176
     1
 91
        4
176
     1
 64
     7
176
     1
 65
   257
176
     1
 75
     1
176
     1
175
     1
176
     1
 42
1.0
176
     1
 92
        0
176
     1
 66
     7
176
     1
 43
1.0
176
     1
 76
     1
176
     1
 77
     6
176
     1
 78
     2
176
     1
 67
     7
176
     1
 79
     5
176
     1
170
     0
176
     1
171
     0
176
     1
290
     0
176
     1
 93
       13
176
     1
 44
0.0
176
     1
173
     0
176
     1
  0
VISUALSTYLE
  5
2E
102
{ACAD_REACTORS
330
2A
102
}
330
2A
100
AcDbVisualStyle
  2
GouraudWithEdges
 70
     3
177
     2
291
     1
 71
     2
176
     1
 72
     2
176
     1
 73
     1
176
     1
 90
        2
176
     1
 40
-0.6
176
     1
 41
30.0
176
     1
 62
     5
 63
     7
421
 16777215
176
     1
 74
     1
176
     1
 91
        4
176
     1
 64
     7
176
     1
 65
   257
176
     1
 75
     1
176
     1
175
     1
176
     1
 42
1.0
176
     1
 92
        0
176
     1
 66
   257
176
     1
 43
1.0
176
     1
 76
     1
176
     1
 77
     6
176
     1
 78
     2
176
     1
 67
     7
176
     1
 79
     5
176
     1
170
     0
176
     1
171
     0
176
     1
290
     0
176
     1
 93
       13
176
     1
 44
0.0
176
     1
173
     0
176
     1
  0
VISUALSTYLE
  5
38
102
{ACAD_REACTORS
330
2A
102
}
330
2A
100
AcDbVisualStyle
  2
Linepattern
 70
    14
177
     2
291
     1
 71
     2
176
     1
 72
     2
176
     1
 73
     0
176
     1
 90
        0
176
     1
 40
-0.6
176
     1
 41
-30.0
176
     1
 62
     5
 63
     7
421
 16777215
176
     1
 74
     1
176
     1
 91
        4
176
     1
 64
     7
176
     1
 65
   257
176
     1
 75
     7
176
     1
175
     7
176
     1
 42
1.0
176
     1
 92
        8
176
     1
 66
     7
176
     1
 43
1.0
176
     1
 76
     1
176
     1
 77
     6
176
     1
 78
     2
176
     1
 67
     7
176
     1
 79
     5
176
     1
170
     0
176
     1
171
     0
176
     1
290
     0
176
     1
 93
        1
176
     1
 44
0.0
176
     1
173
     0
176
     1
  0
VISUALSTYLE
  5
33
102
{ACAD_REACTORS
330
2A
102
}
330
2A
100
AcDbVisualStyle
  2
Realistic
 70
     8
177
     2
291
     0
 71
     2
176
     1
 72
     2
176
     1
 73
     0
176
     1
 90
        0
176
     1
 40
-0.6
176
     1
 41
-30.0
176
     1
 62
     5
 63
     7
421
 16777215
176
     1
 74
     1
176
     1
 91
        0
176
     1
 64
     7
176
     1
 65
   257
176
     1
 75
     1
176
     1
175
     1
176
     1
 42
1.0
176
     1
 92
        8
176
     1
 66
     8
424
  7895160
176
     1
 43
1.0
176
     1
 76
     1
176
     1
 77
     6
176
     1
 78
     2
176
     1
 67
     7
176
     1
 79
     5
176
     1
170
     0
176
     1
171
     0
176
     1
290
     0
176
     1
 93
       13
176
     1
 44
0.0
176
     1
173
     0
176
     1
  0
VISUALSTYLE
  5
37
102
{ACAD_REACTORS
330
2A
102
}
330
2A
100
AcDbVisualStyle
  2
Thicken
 70
    13
177
     2
291
     1
 71
     2
176
     1
 72
     2
176
     1
 73
     0
176
     1
 90
        0
176
     1
 40
-0.6
176
     1
 41
-30.0
176
     1
 62
     5
 63
     7
421
 16777215
176
     1
 74
     1
176
     1
 91
        4
176
     1
 64
     7
176
     1
 65
   257
176
     1
 75
     1
176
     1
175
     1
176
     1
 42
1.0
176
     1
 92
       12
176
     1
 66
     7
176
     1
 43
1.0
176
     1
 76
     1
176
     1
 77
     6
176
     1
 78
     2
176
     1
 67
     7
176
     1
 79
     5
176
     1
170
     0
176
     1
171
     0
176
     1
290
     0
176
     1
 93
        1
176
     1
 44
0.0
176
     1
173
     0
176
     1
  0
ENDSEC
  0
EOF
